<svg version="1.1" id="Layer_1" xmlns="http://www.w3.org/2000/svg" width="1200" height="1600" viewBox="150 70 300 400" style="enable-background:new 0 0 595.3 841.9;">
<path fill="#00FF00" class="st0" d="M362.5,274.5c-4-4.9-8.4-8.5-13-10.7c-4.7-2.2-13-4.6-25.1-7.2c-2.6-0.6-4.6-1-5.8-1.3v-48.8
	c14.4,0.1,23.3,4.9,26.5,14.2c-3.4,2-5.1,4.5-5.1,7.4c0,2.6,1.1,4.9,3.3,6.8c2.2,1.9,4.8,2.8,7.9,2.8c3.7,0,6.8-1.3,9.3-3.8
	s3.7-5.7,3.7-9.5c0-8.4-4.1-15.5-12.3-21.4c-8.2-5.8-19.3-9.4-33.3-10.9v-17.4c0-4.4-2.2-6.5-6.5-6.5s-6.5,2.2-6.5,6.5v17.4
	c-9.5,1.5-17.2,3.4-23.3,5.9c-7.1,2.9-12.9,7.6-17.4,14.2c-4.5,6.5-6.7,13.6-6.7,21.1c0,7.4,1.8,13.5,5.3,18.3
	c3.1,4.2,7.4,7.5,13,9.8c4.5,1.9,13,4.4,25.6,7.6l3.5,0.9v54.9c-10.9-0.1-19.7-2.3-26.4-6.3c-6.7-4.1-10.5-9.5-11.3-16.3
	c8.1-0.4,12.1-3.8,12.1-10c0-3.2-1.2-5.8-3.5-8c-2.3-2.1-5.2-3.2-8.6-3.2c-5.1,0-9.2,1.8-12.3,5.4c-3.1,3.6-4.7,8.4-4.7,14.4
	c0,7,2.3,13.4,6.9,19.2c4.6,5.8,10.8,10.3,18.7,13.4c7.9,3.1,17.6,5,29.1,5.8v18.5c0,3.8,2.2,5.7,6.5,5.7s6.5-1.9,6.5-5.7v-18.5
	c10.9-1.9,19.7-4.4,26.5-7.4c7.4-3.2,13.4-8.1,17.9-14.7s6.7-13.8,6.7-21.5C369.7,287.5,367.3,280.5,362.5,274.5z M305.5,252.7
	c-2-0.6-3.4-0.9-4.2-1.1c-9.5-2.3-16-5-19.8-8.2c-3.7-3.1-5.6-7.6-5.6-13.4c0-6.7,2.8-12.2,8.3-16.6c5.5-4.4,12.6-6.7,21.3-7
	L305.5,252.7L305.5,252.7z M342.1,317c-6.3,5.1-14.1,7.7-23.6,7.8v-52.3c2,0.3,3.3,0.5,4,0.7c10.4,1.7,17.8,4.5,22.3,8.3
	s6.7,9.2,6.7,16.3C351.5,305.5,348.4,311.9,342.1,317z"/>
</svg>
