<svg data-name="Layer 1" xmlns="http://www.w3.org/2000/svg" viewBox="0 0 268.8 268.8"><circle cx="134.4" cy="134.4" r="134.4" style="fill:#1d1d1b"/><path d="M376.7 353.6a47.31 47.31 0 0 0-15.6-12.9c-5.6-2.6-15.6-5.5-30.2-8.6-3.1-.7-5.5-1.2-7-1.6v-58.6c17.3.1 28 5.9 31.8 17.1-4.1 2.4-6.1 5.4-6.1 8.9a10.5 10.5 0 0 0 4 8.2 13.85 13.85 0 0 0 9.5 3.4 15.39 15.39 0 0 0 15.6-16c0-10.1-4.9-18.6-14.8-25.7s-23.2-11.3-40-13.1v-20.9c0-5.3-2.6-7.8-7.8-7.8s-7.8 2.6-7.8 7.8v20.9c-11.4 1.8-20.7 4.1-28 7.1a45.65 45.65 0 0 0-20.9 17.1 43.62 43.62 0 0 0-8 25.3c0 8.9 2.2 16.2 6.4 22a36.39 36.39 0 0 0 15.6 11.8c5.4 2.3 15.6 5.3 30.8 9.1l4.2 1.1v66c-13.1-.1-23.7-2.8-31.7-7.6s-12.6-11.4-13.6-19.6c9.7-.5 14.5-4.6 14.5-12a12.59 12.59 0 0 0-4.2-9.6 14.89 14.89 0 0 0-10.3-3.8 18.68 18.68 0 0 0-14.8 6.5c-3.7 4.3-5.6 10.1-5.6 17.3a36.6 36.6 0 0 0 8.3 23.1c5.5 7 13 12.4 22.5 16.1s21.1 6 35 7v22.2c0 4.6 2.6 6.8 7.8 6.8s7.8-2.3 7.8-6.8v-22.2c13.1-2.3 23.7-5.3 31.8-8.9a48.31 48.31 0 0 0 21.5-17.7 44.91 44.91 0 0 0 8-25.8c0-9.9-2.9-18.4-8.7-25.6Zm-68.4-26.2c-2.4-.7-4.1-1.1-5-1.3-11.4-2.8-19.2-6-23.8-9.9-4.4-3.7-6.7-9.1-6.7-16.1 0-8 3.4-14.7 10-19.9s15.1-8 25.6-8.4l-.1 55.6Zm43.9 77.3c-7.6 6.1-16.9 9.3-28.4 9.4v-62.8c2.4.4 4 .6 4.8.8 12.5 2 21.4 5.4 26.8 10s8 11.1 8 19.6c.1 9.2-3.6 16.9-11.2 23Z" transform="translate(-179.6 -208.8)" style="fill:#0f0"/></svg>